<?xml version="1.0" encoding="utf-8"?>
<!-- Generator: Adobe Illustrator 22.0.1, SVG Export Plug-In . SVG Version: 6.00 Build 0)  -->
<svg version="1.1" id="Layer_1" xmlns="http://www.w3.org/2000/svg" xmlns:xlink="http://www.w3.org/1999/xlink" x="0px" y="0px"
	 viewBox="30 22 610.5 603">
<path fill="#6D6D78" d="M29.4,21.6v601.7h601.7V21.6H29.4z M204.3,355.8c-33.8,0-30.8-31.3-30.8-31.3h-29.9v15.4h25.1v13.9h-84v-11.4
	h25v-44.9h-25v-9.8h119c0,0,18.2-1,18.2,15c0,12.7-9.1,15.1-17,15.1c-1.9,0-3.6,0-3.6,0s-1.9-0.1-1.9,1.5c0,1.6,3.2,1,8,4.9
	c5.7,4.8,4.2,17,14,17c9.4,0,10-13.9,10-13.9l7.7,0C239,327.5,243.2,355.8,204.3,355.8z M382.8,313.5H360v-15.9h-39.1v16.4h24.8v7.9
	H321v18.3h39.4v-15.8h22.4v29.5H255.7v-13.6h26.1v-42.7l-26.1,0v-9.8l127.1,0V313.5z M574.4,353.7H473.7v-14.2h19.2L469.8,322
	l-23.3,17.7H466v14.1h-58.7v-14h18.3l33.3-24.3l-23-17.9h-28.3v-9.8h101.9v9.8h-12.1l15.3,12.8l17.2-12.9h-14.2v-9.7h56.9v9.8h-28.6
	l-22.6,18.3l32.2,23.9h20.9V353.7z M180.6,306.5c0,8.7-5.3,9.5-5.3,9.5h-6.8h-24.8v-18.4h31.6C175.3,297.5,180.6,298,180.6,306.5z"
	/>
</svg>
